<svg width="109" height="105" viewBox="0 0 109 105" fill="none" xmlns="http://www.w3.org/2000/svg">
<path fill-rule="evenodd" clip-rule="evenodd" d="M52.3142 0C51.3682 0 50.461 0.37578 49.7921 1.04467C49.1232 1.71357 48.7475 2.62078 48.7475 3.56674V27.9394H40.9601L32.5069 19.4863C33.4365 17.1986 33.5462 14.6598 32.8174 12.3004C32.0887 9.94103 30.5663 7.90634 28.5085 6.54137C26.4507 5.17641 23.9841 4.56519 21.527 4.81138C19.07 5.05756 16.7737 6.14599 15.0276 7.89209C13.2815 9.63818 12.1931 11.9345 11.9469 14.3915C11.7007 16.8486 12.3119 19.3151 13.6769 21.3729C15.0419 23.4308 17.0766 24.9531 19.4359 25.6819C21.7953 26.4107 24.3341 26.301 26.6218 25.3714L36.2948 35.042C37.0747 35.8225 38.1328 36.2613 39.2362 36.2618H48.7475V46.962H20.5631C19.6028 44.6864 17.8849 42.8129 15.7007 41.6594C13.5166 40.5059 11.0008 40.1434 8.57982 40.6333C6.15888 41.1232 3.98192 42.4354 2.41813 44.3473C0.854341 46.2592 0 48.6532 0 51.1232C0 53.5932 0.854341 55.9872 2.41813 57.8992C3.98192 59.8111 6.15888 61.1233 8.57982 61.6132C11.0008 62.1031 13.5166 61.7406 15.7007 60.5871C17.8849 59.4335 19.6028 57.5601 20.5631 55.2844H48.7475V68.3625H36.8583C35.755 68.3625 34.6945 68.8 33.917 69.5823L24.244 79.2529C21.9563 78.3233 19.4175 78.2136 17.0581 78.9424C14.6987 79.6712 12.664 81.1935 11.2991 83.2513C9.93412 85.3092 9.3229 87.7757 9.56909 90.2328C9.81527 92.6898 10.9037 94.9861 12.6498 96.7322C14.3959 98.4783 16.6922 99.5667 19.1492 99.8129C21.6063 100.059 24.0728 99.4479 26.1307 98.0829C28.1885 96.7179 29.7108 94.6833 30.4396 92.3239C31.1684 89.9645 31.0587 87.4257 30.1291 85.138L38.5823 76.6848H48.7475V100.741C48.7475 101.687 49.1232 102.594 49.7921 103.263C50.461 103.932 51.3682 104.308 52.3142 104.308H72.5257C73.4717 104.308 74.3789 103.932 75.0478 103.263C75.7167 102.594 76.0924 101.687 76.0924 100.741V91.8078L83.0309 92.9801C84.4905 93.2264 85.9852 93.1672 87.4207 92.8063C88.8562 92.4454 90.2012 91.7905 91.3707 90.8832C92.5401 89.9759 93.5086 88.8358 94.2149 87.535C94.9212 86.2342 95.35 84.8011 95.4741 83.3261L96.625 69.6394C99.5223 68.7918 102.286 67.5399 104.833 65.9204C108.73 63.3999 108.757 58.5944 106.681 55.5198L97.3621 41.7284C95.6025 18.3901 76.1067 0 52.3142 0Z" fill="#8063D2"/>
</svg>
