<svg width="86" height="86" viewBox="0 0 86 86" fill="none" xmlns="http://www.w3.org/2000/svg">
<path d="M68.9569 42.8009C67.065 42.8009 65.2506 42.0493 63.9128 40.7115C62.575 39.3737 61.8234 37.5593 61.8234 35.6674C61.8234 33.7755 62.575 31.961 63.9128 30.6232C65.2506 29.2855 67.065 28.5339 68.9569 28.5339C70.8488 28.5339 72.6633 29.2855 74.001 30.6232C75.3388 31.961 76.0904 33.7755 76.0904 35.6674C76.0904 37.5593 75.3388 39.3737 74.001 40.7115C72.6633 42.0493 70.8488 42.8009 68.9569 42.8009ZM54.69 23.7783C52.7981 23.7783 50.9836 23.0267 49.6458 21.6889C48.3081 20.3511 47.5565 18.5367 47.5565 16.6448C47.5565 14.7529 48.3081 12.9384 49.6458 11.6006C50.9836 10.2629 52.7981 9.5113 54.69 9.5113C56.5819 9.5113 58.3963 10.2629 59.7341 11.6006C61.0719 12.9384 61.8234 14.7529 61.8234 16.6448C61.8234 18.5367 61.0719 20.3511 59.7341 21.6889C58.3963 23.0267 56.5819 23.7783 54.69 23.7783ZM30.9117 23.7783C29.0198 23.7783 27.2054 23.0267 25.8676 21.6889C24.5298 20.3511 23.7782 18.5367 23.7782 16.6448C23.7782 14.7529 24.5298 12.9384 25.8676 11.6006C27.2054 10.2629 29.0198 9.5113 30.9117 9.5113C32.8036 9.5113 34.6181 10.2629 35.9559 11.6006C37.2936 12.9384 38.0452 14.7529 38.0452 16.6448C38.0452 18.5367 37.2936 20.3511 35.9559 21.6889C34.6181 23.0267 32.8036 23.7783 30.9117 23.7783ZM16.6448 42.8009C14.7529 42.8009 12.9384 42.0493 11.6006 40.7115C10.2629 39.3737 9.5113 37.5593 9.5113 35.6674C9.5113 33.7755 10.2629 31.961 11.6006 30.6232C12.9384 29.2855 14.7529 28.5339 16.6448 28.5339C18.5367 28.5339 20.3511 29.2855 21.6889 30.6232C23.0267 31.961 23.7782 33.7755 23.7782 35.6674C23.7782 37.5593 23.0267 39.3737 21.6889 40.7115C20.3511 42.0493 18.5367 42.8009 16.6448 42.8009ZM42.8008 0C31.4494 0 20.5628 4.50936 12.5361 12.5361C4.50936 20.5628 0 31.4494 0 42.8009C0 54.1523 4.50936 65.0389 12.5361 73.0656C20.5628 81.0923 31.4494 85.6017 42.8008 85.6017C44.6928 85.6017 46.5072 84.8501 47.845 83.5124C49.1828 82.1746 49.9343 80.3601 49.9343 78.4682C49.9343 76.6135 49.221 74.949 48.0796 73.7126C46.9858 72.4286 46.2725 70.7641 46.2725 68.9569C46.2725 67.065 47.024 65.2506 48.3618 63.9128C49.6996 62.575 51.514 61.8235 53.4059 61.8235H61.8234C68.1298 61.8235 74.1779 59.3182 78.6372 54.859C83.0965 50.3997 85.6017 44.3516 85.6017 38.0452C85.6017 17.0252 66.4364 0 42.8008 0Z" fill="#8063D2"/>
</svg>
