<svg width="70" height="67" viewBox="0 0 70 67" fill="none" xmlns="http://www.w3.org/2000/svg">
<path d="M35 0C30.4037 0 25.8525 0.888016 21.6061 2.61335C17.3597 4.33867 13.5013 6.86753 10.2513 10.0555C3.68749 16.494 0 25.2264 0 34.3317C0 49.5063 10.045 62.3807 23.94 66.9468C25.69 67.2215 26.25 66.1572 26.25 65.2302V59.4282C16.555 61.4881 14.49 54.8277 14.49 54.8277C12.88 50.8453 10.605 49.781 10.605 49.781C7.42 47.6524 10.85 47.7211 10.85 47.7211C14.35 47.9614 16.205 51.2572 16.205 51.2572C19.25 56.4757 24.395 54.9307 26.39 54.1068C26.705 51.8752 27.615 50.3646 28.595 49.5063C20.825 48.648 12.67 45.6955 12.67 32.6151C12.67 28.8043 14 25.7488 16.275 23.3112C15.925 22.4529 14.7 18.8824 16.625 14.2477C16.625 14.2477 19.565 13.3207 26.25 17.7495C29.015 16.9942 32.025 16.6165 35 16.6165C37.975 16.6165 40.985 16.9942 43.75 17.7495C50.435 13.3207 53.375 14.2477 53.375 14.2477C55.3 18.8824 54.075 22.4529 53.725 23.3112C56 25.7488 57.33 28.8043 57.33 32.6151C57.33 45.7298 49.14 48.6137 41.335 49.472C42.595 50.5363 43.75 52.6305 43.75 55.8234V65.2302C43.75 66.1572 44.31 67.2558 46.095 66.9468C59.99 62.3464 70 49.5063 70 34.3317C70 29.8232 69.0947 25.3588 67.3358 21.1935C65.5769 17.0282 62.9988 13.2435 59.7487 10.0555C56.4987 6.86753 52.6403 4.33867 48.3939 2.61335C44.1475 0.888016 39.5963 0 35 0Z" fill="#BDBFAE"/>
</svg>
