<svg width="58" height="59" viewBox="0 0 58 59" fill="none" xmlns="http://www.w3.org/2000/svg">
<path d="M51.5556 0C53.2647 0 54.9039 0.690672 56.1125 1.92008C57.321 3.14948 58 4.81691 58 6.55556V52.4444C58 54.1831 57.321 55.8505 56.1125 57.0799C54.9039 58.3093 53.2647 59 51.5556 59H6.44444C4.73527 59 3.0961 58.3093 1.88753 57.0799C0.678966 55.8505 0 54.1831 0 52.4444V6.55556C0 4.81691 0.678966 3.14948 1.88753 1.92008C3.0961 0.690672 4.73527 0 6.44444 0H51.5556ZM49.9444 50.8056V33.4333C49.9444 30.5993 48.8377 27.8814 46.8678 25.8775C44.8978 23.8736 42.226 22.7478 39.44 22.7478C36.7011 22.7478 33.5111 24.4522 31.9644 27.0089V23.3706H22.9744V50.8056H31.9644V34.6461C31.9644 32.1222 33.9622 30.0572 36.4433 30.0572C37.6398 30.0572 38.7872 30.5407 39.6332 31.4013C40.4792 32.2619 40.9544 33.4291 40.9544 34.6461V50.8056H49.9444ZM12.5022 18.2244C13.9379 18.2244 15.3148 17.6443 16.33 16.6116C17.3452 15.5789 17.9156 14.1782 17.9156 12.7178C17.9156 9.66944 15.4989 7.17833 12.5022 7.17833C11.058 7.17833 9.67287 7.76195 8.65163 8.8008C7.63039 9.83965 7.05667 11.2486 7.05667 12.7178C7.05667 15.7661 9.50556 18.2244 12.5022 18.2244ZM16.9811 50.8056V23.3706H8.05556V50.8056H16.9811Z" fill="#BDBFAE"/>
</svg>
